<svg width="20" height="20" viewBox="0 0 20 20" fill="none" xmlns="http://www.w3.org/2000/svg">
<path d="M13.4998 0.666992C10.2285 0.666992 7.6665 2.20466 7.6665 4.16699V6.1791C7.29006 6.13477 6.90039 6.11144 6.49984 6.11144C3.2285 6.11144 0.666504 7.6491 0.666504 9.61144V15.8337C0.666504 17.796 3.2285 19.3337 6.49984 19.3337C9.15673 19.3337 11.3462 18.3194 12.0742 16.8868C12.5385 16.9544 13.0129 17.0003 13.4998 17.0003C16.7712 17.0003 19.3332 15.4627 19.3332 13.5003V4.16699C19.3332 2.20466 16.7712 0.666992 13.4998 0.666992ZM13.4998 2.22255C15.9483 2.22255 17.7776 3.24921 17.7776 4.16699C17.7776 5.08477 15.9483 6.11144 13.4998 6.11144C11.0514 6.11144 9.22206 5.08477 9.22206 4.16699C9.22206 3.24921 11.0514 2.22255 13.4998 2.22255ZM6.49984 7.66699C8.94828 7.66699 10.7776 8.69366 10.7776 9.61144C10.7776 10.5292 8.94828 11.5559 6.49984 11.5559C4.05139 11.5559 2.22206 10.5292 2.22206 9.61144C2.22206 8.69366 4.05139 7.66699 6.49984 7.66699ZM2.22206 12.0085C3.27984 12.6891 4.79106 13.1114 6.49984 13.1114C8.20861 13.1114 9.71984 12.6891 10.7776 12.0085V12.7225C10.7776 13.6403 8.94828 14.667 6.49984 14.667C4.05139 14.667 2.22206 13.6403 2.22206 12.7225V12.0085ZM6.49984 17.7781C4.05139 17.7781 2.22206 16.7514 2.22206 15.8337V15.1197C3.27984 15.8002 4.79106 16.2225 6.49984 16.2225C8.20861 16.2225 9.71984 15.8002 10.7776 15.1197V15.8337C10.7776 16.7514 8.94828 17.7781 6.49984 17.7781ZM13.4998 15.4448C13.1001 15.4448 12.7127 15.4082 12.3332 15.3545V13.8145C12.7158 13.8597 13.1032 13.8892 13.4998 13.8892C15.2086 13.8892 16.7198 13.4669 17.7776 12.7863V13.5003C17.7776 14.4181 15.9483 15.4448 13.4998 15.4448ZM13.4998 12.3337C13.1001 12.3337 12.7127 12.2971 12.3332 12.2434V10.7034C12.7158 10.7485 13.1032 10.7781 13.4998 10.7781C15.2086 10.7781 16.7198 10.3558 17.7776 9.67521V10.3892C17.7776 11.307 15.9483 12.3337 13.4998 12.3337ZM13.4998 9.22255C13.0783 9.22255 12.6707 9.18288 12.2725 9.12377C12.1185 8.43388 11.6433 7.81399 10.9339 7.31855C11.7055 7.54021 12.5719 7.66777 13.4998 7.66777C15.2086 7.66777 16.7198 7.24544 17.7776 6.56488V7.27888C17.7776 8.19666 15.9483 9.22333 13.4998 9.22333V9.22255Z" fill="white"/>
</svg>
