<svg width="20" height="20" viewBox="0 0 20 20" fill="none" xmlns="http://www.w3.org/2000/svg">
<path d="M18.9417 10.5668L15.4917 8.58346C15.4 8.53346 15.3083 8.50013 15.2083 8.4668V3.83346C15.2083 3.10013 14.8 2.4168 14.15 2.0418L11.1083 0.291797C10.425 -0.0998698 9.58333 -0.0998698 8.9 0.291797L5.85 2.0418C5.2 2.4168 4.79167 3.10013 4.79167 3.83346V8.47513C4.69167 8.50846 4.6 8.5418 4.50833 8.5918L1.05833 10.5668C0.408333 10.9418 0 11.6251 0 12.3585V16.1668C0 16.9001 0.408333 17.5835 1.05833 17.9585L4.10833 19.7085C4.45 19.9001 4.83333 20.0001 5.21667 20.0001C5.6 20.0001 5.98333 19.9001 6.325 19.7085L10.0083 17.5918L13.6917 19.7085C14.0333 19.9001 14.4167 20.0001 14.8 20.0001C15.1833 20.0001 15.5667 19.9001 15.9083 19.7085L18.9583 17.9585C19.6083 17.5835 20.0167 16.9001 20.0167 16.1668V12.3585C20.0167 11.6251 19.6083 10.9418 18.9583 10.5668H18.9417ZM18.525 11.2918C18.5917 11.3335 18.65 11.3835 18.7083 11.4335L14.7833 13.6835L10.825 11.4168L14.4917 9.30846C14.6667 9.20846 14.8833 9.20846 15.0667 9.30846L18.5167 11.2918H18.525ZM5.65 3.62513L9.58333 5.88346V10.7001L5.90833 8.5918C5.81667 8.5418 5.725 8.50846 5.625 8.47513V3.83346C5.625 3.7668 5.64167 3.6918 5.65 3.62513ZM14.3417 3.62513C14.3583 3.6918 14.3667 3.75846 14.3667 3.83346V8.47513C14.2667 8.50846 14.175 8.5418 14.0833 8.5918L10.4083 10.7001V5.88346L14.3417 3.62513ZM9.30833 1.0168C9.73333 0.77513 10.2583 0.77513 10.6833 1.0168L13.7333 2.7668C13.8 2.80846 13.8583 2.85846 13.9167 2.90846L9.99167 5.15846L6.075 2.90846C6.13333 2.85846 6.19167 2.80846 6.25833 2.7668L9.30833 1.0168ZM4.925 9.30846C5.01667 9.25846 5.10833 9.23346 5.20833 9.23346C5.30833 9.23346 5.40833 9.25846 5.49167 9.30846L9.15833 11.4168L5.2 13.6835L1.28333 11.4335C1.34167 11.3835 1.4 11.3335 1.46667 11.2918L4.91667 9.30846H4.925ZM1.46667 17.2335C1.075 17.0085 0.833333 16.6001 0.833333 16.1668V12.3585C0.833333 12.2918 0.85 12.2168 0.858333 12.1501L4.79167 14.4085V19.1001C4.7 19.0668 4.60833 19.0418 4.51667 18.9918L1.46667 17.2418V17.2335ZM5.89167 18.9835C5.80833 19.0335 5.70833 19.0668 5.61667 19.0918V14.4001L9.575 12.1251V16.8585L5.89167 18.9751V18.9835ZM10.4083 16.8668V12.1335L14.3667 14.4085V19.1001C14.275 19.0668 14.1833 19.0418 14.0917 18.9918L10.4083 16.8751V16.8668ZM19.1583 16.1668C19.1583 16.6001 18.9167 17.0085 18.525 17.2335L15.475 18.9835C15.3917 19.0335 15.2917 19.0668 15.2 19.0918V14.4001L19.1333 12.1418C19.15 12.2085 19.1583 12.2751 19.1583 12.3501V16.1585V16.1668Z" fill="white"/>
</svg>
