<svg width="20" height="20" viewBox="0 0 20 20" fill="none" xmlns="http://www.w3.org/2000/svg">
<g clip-path="url(#clip0_1099_2194)">
<path d="M18.7376 9.1461L10.0001 14.3894L1.26258 9.1461C1.07306 9.03239 0.846133 8.99862 0.631716 9.05223C0.4173 9.10583 0.232959 9.24242 0.119248 9.43194C0.0055361 9.62146 -0.0282319 9.84838 0.0253722 10.0628C0.0789764 10.2772 0.215562 10.4616 0.405081 10.5753L9.57175 16.0753C9.70136 16.1531 9.84971 16.1943 10.0009 16.1943C10.1521 16.1943 10.3005 16.1531 10.4301 16.0753L19.5968 10.5753C19.7863 10.4616 19.9229 10.2772 19.9765 10.0628C20.0301 9.84838 19.9963 9.62146 19.8826 9.43194C19.7689 9.24242 19.5845 9.10583 19.3701 9.05223C19.1557 8.99862 18.9288 9.03239 18.7393 9.1461H18.7376Z" fill="#FAFAFA"/>
<path d="M18.7376 12.9527L10.0001 18.1952L1.26258 12.9527C1.16874 12.8964 1.06473 12.8592 0.956483 12.8431C0.848239 12.827 0.737882 12.8323 0.631714 12.8589C0.525545 12.8854 0.425645 12.9326 0.337715 12.9978C0.249786 13.0629 0.175549 13.1447 0.119245 13.2386C0.0629409 13.3324 0.0256712 13.4364 0.00956407 13.5447C-0.0065431 13.6529 -0.00117232 13.7633 0.0253698 13.8694C0.0789739 14.0839 0.215559 14.2682 0.405079 14.3819L9.57174 19.8819C9.70135 19.9598 9.84971 20.0009 10.0009 20.0009C10.1521 20.0009 10.3005 19.9598 10.4301 19.8819L19.5967 14.3819C19.7863 14.2682 19.9229 14.0839 19.9765 13.8694C20.0301 13.655 19.9963 13.4281 19.8826 13.2386C19.7689 13.0491 19.5845 12.9125 19.3701 12.8589C19.1557 12.8053 18.9288 12.839 18.7392 12.9527H18.7376Z" fill="#FAFAFA"/>
<path d="M9.99998 12.3107C9.55046 12.3105 9.10947 12.1881 8.72415 11.9566L0.404147 6.96405C0.280937 6.88996 0.17899 6.78526 0.108214 6.66012C0.0374394 6.53498 0.000244141 6.39365 0.000244141 6.24988C0.000244141 6.10611 0.0374394 5.96479 0.108214 5.83965C0.17899 5.71451 0.280937 5.6098 0.404147 5.53572L8.72415 0.543217C9.10946 0.311741 9.55049 0.189453 9.99998 0.189453C10.4495 0.189453 10.8905 0.311741 11.2758 0.543217L19.5958 5.53572C19.719 5.6098 19.821 5.71451 19.8917 5.83965C19.9625 5.96479 19.9997 6.10611 19.9997 6.24988C19.9997 6.39365 19.9625 6.53498 19.8917 6.66012C19.821 6.78526 19.719 6.88996 19.5958 6.96405L11.2758 11.9566C10.8905 12.1881 10.4495 12.3105 9.99998 12.3107ZM2.45331 6.24988L9.58331 10.5274C9.70924 10.6027 9.85324 10.6425 9.99998 10.6425C10.1467 10.6425 10.2907 10.6027 10.4166 10.5274L17.5466 6.24988L10.4166 1.97238C10.2907 1.89705 10.1467 1.85727 9.99998 1.85727C9.85324 1.85727 9.70924 1.89705 9.58331 1.97238L2.45331 6.24988Z" fill="#FAFAFA"/>
</g>
<defs>
<clipPath id="clip0_1099_2194">
<rect width="20" height="20" fill="white"/>
</clipPath>
</defs>
</svg>
