<svg width="20" height="20" viewBox="0 0 20 20" fill="none" xmlns="http://www.w3.org/2000/svg">
<g clip-path="url(#clip0_1161_3107)">
<path d="M15.221 9.99984H11.5554C11.1428 9.99984 10.7472 9.83596 10.4554 9.54423C10.1637 9.25251 9.99982 8.85685 9.99982 8.44429V4.76851C10.0009 4.41072 9.91964 4.05748 9.76239 3.73609C9.60514 3.41471 9.37608 3.1338 9.09293 2.91507C8.82463 2.70259 8.51107 2.55463 8.17648 2.48261C7.84189 2.41059 7.49523 2.41645 7.16326 2.49973C5.27766 2.96781 3.6083 4.06545 2.43124 5.61113C1.25419 7.15681 0.639946 9.05794 0.690101 11.0001C0.740256 12.9423 1.4518 14.8092 2.70707 16.2921C3.96234 17.7749 5.68613 18.7849 7.59338 19.1551C9.73779 19.5655 11.958 19.1406 13.7993 17.9673C15.6406 16.7941 16.9637 14.9612 17.4976 12.8442C17.5812 12.5118 17.5873 12.1646 17.5154 11.8295C17.4435 11.4944 17.2956 11.1803 17.083 10.9114C16.8617 10.6286 16.5792 10.3997 16.2567 10.2418C15.9342 10.084 15.5801 10.0012 15.221 9.99984ZM15.9895 12.4638C15.6917 13.6631 15.0807 14.7617 14.219 15.6473C13.3573 16.5329 12.2758 17.1738 11.0852 17.5043C9.8946 17.8348 8.63755 17.8432 7.44264 17.5285C6.24774 17.2138 5.15786 16.5874 4.28448 15.7133C3.41111 14.8392 2.78558 13.7488 2.47188 12.5536C2.15818 11.3584 2.16757 10.1014 2.49909 8.91104C2.8306 7.72069 3.47234 6.63976 4.35868 5.7788C5.24501 4.91784 6.34412 4.30776 7.5436 4.01096C7.64621 3.98532 7.75341 3.98406 7.85659 4.00729C7.95978 4.03053 8.05609 4.07759 8.13782 4.14473C8.23434 4.21832 8.31261 4.31314 8.36656 4.42186C8.42051 4.53057 8.4487 4.65026 8.44893 4.77162V8.44429C8.44893 9.26941 8.77671 10.0607 9.36016 10.6442C9.9436 11.2276 10.7349 11.5554 11.56 11.5554H15.2249C15.3474 11.5559 15.4681 11.5842 15.578 11.638C15.6879 11.6919 15.7842 11.77 15.8596 11.8665C15.9257 11.9494 15.9718 12.0464 15.9942 12.15C16.0166 12.2537 16.0155 12.3611 15.9895 12.4638Z" fill="white"/>
<path d="M19.0616 6.45846C18.7035 5.14205 18.0079 3.94196 17.0436 2.97696C16.0793 2.01195 14.8797 1.31548 13.5635 0.956461C13.4255 0.919368 13.2833 0.900541 13.1404 0.900461C12.9349 0.898508 12.731 0.937303 12.5406 1.0146C12.3501 1.0919 12.1769 1.20617 12.0309 1.35081C11.8849 1.49546 11.769 1.6676 11.6899 1.8573C11.6108 2.047 11.5701 2.25049 11.5701 2.45602V6.11157C11.5701 6.73041 11.8159 7.3239 12.2535 7.76149C12.6911 8.19907 13.2846 8.44491 13.9034 8.44491H17.5737C17.8138 8.4426 18.0501 8.38497 18.2643 8.2765C18.4785 8.16803 18.6648 8.01164 18.8087 7.81948C18.9527 7.62732 19.0503 7.40457 19.0942 7.16852C19.1381 6.93248 19.1269 6.6895 19.0616 6.45846ZM17.1187 6.88935H13.9003C13.694 6.88935 13.4962 6.80741 13.3503 6.66154C13.2045 6.51568 13.1225 6.31785 13.1225 6.11157L13.1163 2.46146C13.122 2.45734 13.1287 2.45492 13.1357 2.45446H13.156C14.2154 2.74308 15.1806 3.3045 15.9552 4.08269C16.7298 4.86089 17.2868 5.82863 17.5706 6.88935H17.1187Z" fill="white"/>
</g>
<defs>
<clipPath id="clip0_1161_3107">
<rect width="18.6667" height="18.6667" fill="white" transform="translate(0.666504 0.666992)"/>
</clipPath>
</defs>
</svg>
