<svg width="20" height="20" viewBox="0 0 20 20" fill="none" xmlns="http://www.w3.org/2000/svg">
<g clip-path="url(#clip0_1161_3120)">
<path d="M5.83333 0H3.33333C2.44928 0 1.60143 0.35119 0.976311 0.976311C0.35119 1.60143 0 2.44928 0 3.33333L0 5.83333C0 6.71739 0.35119 7.56524 0.976311 8.19036C1.60143 8.81548 2.44928 9.16667 3.33333 9.16667H5.83333C6.71739 9.16667 7.56524 8.81548 8.19036 8.19036C8.81548 7.56524 9.16667 6.71739 9.16667 5.83333V3.33333C9.16667 2.44928 8.81548 1.60143 8.19036 0.976311C7.56524 0.35119 6.71739 0 5.83333 0ZM7.5 5.83333C7.5 6.27536 7.32441 6.69928 7.01184 7.01184C6.69928 7.32441 6.27536 7.5 5.83333 7.5H3.33333C2.89131 7.5 2.46738 7.32441 2.15482 7.01184C1.84226 6.69928 1.66667 6.27536 1.66667 5.83333V3.33333C1.66667 2.89131 1.84226 2.46738 2.15482 2.15482C2.46738 1.84226 2.89131 1.66667 3.33333 1.66667H5.83333C6.27536 1.66667 6.69928 1.84226 7.01184 2.15482C7.32441 2.46738 7.5 2.89131 7.5 3.33333V5.83333Z" fill="white"/>
<path d="M16.6667 0H14.1667C13.2827 0 12.4348 0.35119 11.8097 0.976311C11.1846 1.60143 10.8334 2.44928 10.8334 3.33333V5.83333C10.8334 6.71739 11.1846 7.56524 11.8097 8.19036C12.4348 8.81548 13.2827 9.16667 14.1667 9.16667H16.6667C17.5508 9.16667 18.3986 8.81548 19.0237 8.19036C19.6489 7.56524 20 6.71739 20 5.83333V3.33333C20 2.44928 19.6489 1.60143 19.0237 0.976311C18.3986 0.35119 17.5508 0 16.6667 0ZM18.3334 5.83333C18.3334 6.27536 18.1578 6.69928 17.8452 7.01184C17.5327 7.32441 17.1087 7.5 16.6667 7.5H14.1667C13.7247 7.5 13.3008 7.32441 12.9882 7.01184C12.6756 6.69928 12.5 6.27536 12.5 5.83333V3.33333C12.5 2.89131 12.6756 2.46738 12.9882 2.15482C13.3008 1.84226 13.7247 1.66667 14.1667 1.66667H16.6667C17.1087 1.66667 17.5327 1.84226 17.8452 2.15482C18.1578 2.46738 18.3334 2.89131 18.3334 3.33333V5.83333Z" fill="white"/>
<path d="M5.83333 10.833H3.33333C2.44928 10.833 1.60143 11.1842 0.976311 11.8093C0.35119 12.4344 0 13.2823 0 14.1663L0 16.6663C0 17.5504 0.35119 18.3982 0.976311 19.0234C1.60143 19.6485 2.44928 19.9997 3.33333 19.9997H5.83333C6.71739 19.9997 7.56524 19.6485 8.19036 19.0234C8.81548 18.3982 9.16667 17.5504 9.16667 16.6663V14.1663C9.16667 13.2823 8.81548 12.4344 8.19036 11.8093C7.56524 11.1842 6.71739 10.833 5.83333 10.833ZM7.5 16.6663C7.5 17.1084 7.32441 17.5323 7.01184 17.8449C6.69928 18.1574 6.27536 18.333 5.83333 18.333H3.33333C2.89131 18.333 2.46738 18.1574 2.15482 17.8449C1.84226 17.5323 1.66667 17.1084 1.66667 16.6663V14.1663C1.66667 13.7243 1.84226 13.3004 2.15482 12.9878C2.46738 12.6753 2.89131 12.4997 3.33333 12.4997H5.83333C6.27536 12.4997 6.69928 12.6753 7.01184 12.9878C7.32441 13.3004 7.5 13.7243 7.5 14.1663V16.6663Z" fill="white"/>
<path d="M16.6667 10.833H14.1667C13.2827 10.833 12.4348 11.1842 11.8097 11.8093C11.1846 12.4344 10.8334 13.2823 10.8334 14.1663V16.6663C10.8334 17.5504 11.1846 18.3982 11.8097 19.0234C12.4348 19.6485 13.2827 19.9997 14.1667 19.9997H16.6667C17.5508 19.9997 18.3986 19.6485 19.0237 19.0234C19.6489 18.3982 20 17.5504 20 16.6663V14.1663C20 13.2823 19.6489 12.4344 19.0237 11.8093C18.3986 11.1842 17.5508 10.833 16.6667 10.833ZM18.3334 16.6663C18.3334 17.1084 18.1578 17.5323 17.8452 17.8449C17.5327 18.1574 17.1087 18.333 16.6667 18.333H14.1667C13.7247 18.333 13.3008 18.1574 12.9882 17.8449C12.6756 17.5323 12.5 17.1084 12.5 16.6663V14.1663C12.5 13.7243 12.6756 13.3004 12.9882 12.9878C13.3008 12.6753 13.7247 12.4997 14.1667 12.4997H16.6667C17.1087 12.4997 17.5327 12.6753 17.8452 12.9878C18.1578 13.3004 18.3334 13.7243 18.3334 14.1663V16.6663Z" fill="white"/>
</g>
<defs>
<clipPath id="clip0_1161_3120">
<rect width="20" height="20" fill="white"/>
</clipPath>
</defs>
</svg>
